<?xml version="1.0" standalone="no"?><!DOCTYPE svg PUBLIC "-//W3C//DTD SVG 1.1//EN" "http://www.w3.org/Graphics/SVG/1.1/DTD/svg11.dtd"><svg t="1652071303271" class="icon" viewBox="0 0 1024 1024" version="1.1" xmlns="http://www.w3.org/2000/svg" p-id="5349" xmlns:xlink="http://www.w3.org/1999/xlink" width="200" height="200"><defs><style type="text/css">@font-face { font-family: feedback-iconfont; src: url("//at.alicdn.com/t/font_1031158_u69w8yhxdu.woff2?t=1630033759944") format("woff2"), url("//at.alicdn.com/t/font_1031158_u69w8yhxdu.woff?t=1630033759944") format("woff"), url("//at.alicdn.com/t/font_1031158_u69w8yhxdu.ttf?t=1630033759944") format("truetype"); }
</style></defs><path d="M359.42 839.61c-1.09 0-2.19-0.22-3.22-0.67a8.004 8.004 0 0 1-4.09-10.56l118.76-269.43c1.78-4.06 6.59-5.83 10.53-4.09a8.004 8.004 0 0 1 4.09 10.56L366.73 834.85c-1.31 2.98-4.24 4.76-7.31 4.76z" fill="#2CAAD1" p-id="5350"></path><path d="M544.73 464.44L499.6 445.9c-6.52-2.68-9.6-10.06-6.89-16.49l47.39-112.34c2.71-6.43 10.19-9.47 16.71-6.79l45.13 18.54c6.52 2.68 9.6 10.06 6.89 16.49l-47.39 112.34c-2.71 6.42-10.19 9.47-16.71 6.79z" fill="#F94E4E" p-id="5351"></path><path d="M549.62 468.61c-2.03 0-4.12-0.39-6.12-1.2v-0.02l-45.11-18.54c-3.97-1.62-7.06-4.69-8.68-8.62-1.59-3.9-1.59-8.18 0.06-12.07l47.39-112.33c3.4-8.07 12.78-11.87 20.87-8.5l45.14 18.52c3.97 1.62 7.03 4.69 8.65 8.61 1.62 3.89 1.62 8.18-0.03 12.07L564.37 458.9c-2.53 6.04-8.47 9.71-14.75 9.71z m-3.68-7.13c4.97 2.01 10.53-0.3 12.56-5.06l47.42-112.36c0.94-2.3 0.97-4.84 0-7.14-0.97-2.34-2.81-4.17-5.19-5.15l-45.14-18.52c-4.97-2.03-10.53 0.27-12.56 5.09l-47.39 112.33c-0.97 2.3-0.97 4.83-0.03 7.14 0.97 2.34 2.84 4.17 5.22 5.14l45.11 18.53z" fill="#F73939" p-id="5352"></path><path d="M474.905097 568.165774a204.31 91.09 22.408 1 0 69.446919-168.424101 204.31 91.09 22.408 1 0-69.446919 168.424101Z" fill="#F94E4E" p-id="5353"></path><path d="M612.69 601.79c-68.53 0-159.87-30.5-226.03-78.75-50.23-36.61-77-77.26-71.63-108.77 3.37-19.79 18.77-34.36 44.54-42.14 67.72-20.37 190.07 12.18 272.98 72.67 50.23 36.61 77 77.26 71.63 108.77-3.37 19.79-18.77 34.36-44.54 42.14-13.68 4.13-29.58 6.08-46.95 6.08zM406.9 372.38c-16.84 0-32.24 1.89-45.45 5.89-23.3 7.03-37.17 19.87-40.11 37.08-4.94 29.07 20.87 67.39 69.06 102.55 81.5 59.4 201.41 91.6 267.35 71.7 23.3-7.03 37.17-19.87 40.11-37.08 4.94-29.07-20.87-67.39-69.06-102.55-65.15-47.5-154.86-77.59-221.9-77.59z" fill="#F73939" p-id="5354"></path><path d="M528.36 265.35a74.44 73.45 0 1 0 148.88 0 74.44 73.45 0 1 0-148.88 0Z" fill="#F94E4E" p-id="5355"></path><path d="M602.76 342.01c-37.27 0-70.25-26.64-76.56-64.11-3.37-20.02 1.31-40.19 13.18-56.77 12.09-16.87 30.08-28.02 50.7-31.39 42.42-6.9 82.34 21.4 89.31 63.07 3.37 20.02-1.28 40.17-13.15 56.76-12.06 16.88-30.08 28.03-50.73 31.41-4.29 0.69-8.57 1.03-12.75 1.03z m0.06-146.92c-3.84 0-7.78 0.31-11.68 0.95-18.96 3.11-35.48 13.34-46.54 28.8-10.87 15.2-15.18 33.66-12.09 51.99 6.43 38.23 43.57 64.14 81.93 57.82 18.96-3.11 35.52-13.34 46.57-28.82 10.87-15.2 15.15-33.64 12.06-51.98-5.78-34.33-36.05-58.76-70.25-58.76z" fill="#F73939" p-id="5356"></path></svg>